<?xml version="1.0" encoding="UTF-8"?><svg id="Layer_1" xmlns="http://www.w3.org/2000/svg" xmlns:xlink="http://www.w3.org/1999/xlink" viewBox="0 0 1027 1009"><defs><style>.cls-1{font-family:HouschkaRounded-Medium, 'Houschka Rounded';font-size:241.46px;letter-spacing:.05em;}.cls-2{fill:#fff;}.cls-3{fill:#fcd46c;}.cls-4{fill:#bfe5ec;}.cls-5{fill:#3892c7;}.cls-6{fill:#4db9e0;}.cls-7{fill:url(#New_Gradient_Swatch_6);}.cls-7,.cls-8{opacity:.85;}.cls-9{fill:none;stroke:#4db9e0;stroke-miterlimit:10;stroke-width:10px;}.cls-9,.cls-10{opacity:.7;}.cls-11{opacity:.75;}.cls-12{fill:#b4e1e9;opacity:.65;}</style><radialGradient id="New_Gradient_Swatch_6" cx="462.36" cy="373.66" fx="462.36" fy="373.66" r="214.95" gradientTransform="translate(-230.24 491.94) rotate(-44.87) skewX(.25)" gradientUnits="userSpaceOnUse"><stop offset="0" stop-color="#fff"/><stop offset=".1" stop-color="#eef8fc"/><stop offset=".37" stop-color="#c7e8f5"/><stop offset=".51" stop-color="#b8e3f3"/><stop offset=".59" stop-color="#b3e1f2"/><stop offset=".69" stop-color="#a6dbef"/><stop offset=".8" stop-color="#8fd3eb"/><stop offset=".9" stop-color="#70c7e6"/><stop offset="1" stop-color="#4db9e0"/></radialGradient></defs><ellipse class="cls-12" cx="647.26" cy="511.62" rx="53.37" ry="53.14"/><text class="cls-1" transform="translate(131.26 936.77)"><tspan class="cls-6" x="0" y="0">b</tspan><tspan x="140.05" y="0">ubble</tspan></text><ellipse class="cls-7" cx="364.7" cy="430.38" rx="215.9" ry="214.95"/><g class="cls-8"><path class="cls-2" d="M521.59,444.05h0c-6.44,0-11.78-4.96-12.29-11.36-2.81-35.56-18.53-68.67-44.97-94.21-26.62-25.72-61.2-40.99-98.37-43.64-6.45-.46-11.45-5.81-11.46-12.25h0c-.01-7.14,6.07-12.74,13.21-12.23,42.94,3.07,82.92,20.74,113.73,50.52,30.81,29.77,49.14,68.41,52.41,109.95,.56,7.14-5.08,13.24-12.26,13.22Z"/></g><ellipse class="cls-12" cx="794.18" cy="277.22" rx="85.41" ry="85.04"/><path class="cls-9" d="M705.9,682.6l-342.6-128.38c-32.37-12.13-65.55-47.24-75.38-79.42L193.62,166.3c-13.36-43.7,3.07-79.78,38.81-78.65l403.94,12.77c68.07,2.15,131.91,59.24,136.28,123.44l28.74,422.7c2.8,41.24-41.65,56.22-95.48,36.05Z"/><g class="cls-11"><path class="cls-3" d="M303.81,144.85c-.51,6.26-6.25,10.25-12.5,9.08-5.89-1.1-10.2-6.45-9.94-12.1,.27-5.74,5.19-10.09,11.3-9.6,6.5,.52,11.65,6.24,11.14,12.62Z"/></g><g class="cls-11"><path class="cls-4" d="M271.05,142.2c-.49,6.07-6.17,9.05-12.02,7.27-5.19-1.58-9.18-6.56-9.44-11.55-.27-5.31,3.72-9.53,9.57-9.06,6.7,.54,12.42,6.77,11.89,13.33Z"/></g><path class="cls-5" d="M336.98,149.65c-.51,6.27-6.07,9.57-11.93,8.03-5.34-1.41-9.68-6.56-10.13-11.99-.49-5.9,3.68-10.7,9.91-10.2,6.95,.56,12.71,7.24,12.15,14.17Z"/><g class="cls-10"><path class="cls-3" d="M601.33,184.18l-214.23-24.06c-4.69-.53-9.1-5.24-9.93-10.58h0c-.83-5.4,2.29-9.53,7.05-9.16l218.92,16.91c9.46,.73,16.78,7.61,16.13,15.25h0c-.64,7.52-8.76,12.68-17.95,11.65Z"/></g></svg>